<mxfile host="app.diagrams.net" agent="Mozilla/5.0 (Windows NT 10.0; Win64; x64) AppleWebKit/537.36 (KHTML, like Gecko) Chrome/135.0.0.0 Safari/537.36" version="26.2.13">
  <diagram name="第 1 页" id="3QJdQ5_wCCXxDy9yjB_w">
    <mxGraphModel dx="739" dy="474" grid="1" gridSize="10" guides="1" tooltips="1" connect="1" arrows="1" fold="1" page="1" pageScale="1" pageWidth="827" pageHeight="1169" math="0" shadow="0">
      <root>
        <mxCell id="0" />
        <mxCell id="1" parent="0" />
        <mxCell id="WZqzgftzzFyOO5o-W55S-1" value="Server" style="shape=umlLifeline;perimeter=lifelinePerimeter;whiteSpace=wrap;container=1;dropTarget=0;collapsible=0;recursiveResize=0;outlineConnect=0;portConstraint=eastwest;newEdgeStyle={&quot;edgeStyle&quot;:&quot;elbowEdgeStyle&quot;,&quot;elbow&quot;:&quot;vertical&quot;,&quot;curved&quot;:0,&quot;rounded&quot;:0};size=65;" vertex="1" parent="1">
          <mxGeometry x="20" y="20" width="150" height="700" as="geometry" />
        </mxCell>
        <mxCell id="WZqzgftzzFyOO5o-W55S-2" value="System" style="shape=umlLifeline;perimeter=lifelinePerimeter;whiteSpace=wrap;container=1;dropTarget=0;collapsible=0;recursiveResize=0;outlineConnect=0;portConstraint=eastwest;newEdgeStyle={&quot;edgeStyle&quot;:&quot;elbowEdgeStyle&quot;,&quot;elbow&quot;:&quot;vertical&quot;,&quot;curved&quot;:0,&quot;rounded&quot;:0};size=65;" vertex="1" parent="1">
          <mxGeometry x="220" y="20" width="150" height="700" as="geometry" />
        </mxCell>
        <mxCell id="WZqzgftzzFyOO5o-W55S-3" value="" style="points=[];perimeter=orthogonalPerimeter;outlineConnect=0;targetShapes=umlLifeline;portConstraint=eastwest;newEdgeStyle={&quot;edgeStyle&quot;:&quot;elbowEdgeStyle&quot;,&quot;elbow&quot;:&quot;vertical&quot;,&quot;curved&quot;:0,&quot;rounded&quot;:0}" vertex="1" parent="WZqzgftzzFyOO5o-W55S-2">
          <mxGeometry x="70" y="107" width="10" height="533" as="geometry" />
        </mxCell>
        <mxCell id="WZqzgftzzFyOO5o-W55S-4" value="alt" style="shape=umlFrame;pointerEvents=0;dropTarget=0;strokeColor=#B3B3B3;height=20;width=30" vertex="1" parent="1">
          <mxGeometry x="30" y="249" width="360" height="307" as="geometry" />
        </mxCell>
        <mxCell id="WZqzgftzzFyOO5o-W55S-5" value="[故障中断]" style="text;strokeColor=none;fillColor=none;align=center;verticalAlign=middle;whiteSpace=wrap;" vertex="1" parent="WZqzgftzzFyOO5o-W55S-4">
          <mxGeometry x="63.529411764705884" width="296.47058823529414" height="20" as="geometry" />
        </mxCell>
        <mxCell id="WZqzgftzzFyOO5o-W55S-6" value="[正常结束]" style="shape=line;dashed=1;whiteSpace=wrap;verticalAlign=top;labelPosition=center;verticalLabelPosition=middle;align=center;strokeColor=#B3B3B3;" vertex="1" parent="WZqzgftzzFyOO5o-W55S-4">
          <mxGeometry y="154" width="360" height="22" as="geometry" />
        </mxCell>
        <mxCell id="WZqzgftzzFyOO5o-W55S-9" value="结束充电信号" style="verticalAlign=bottom;edgeStyle=elbowEdgeStyle;elbow=vertical;curved=0;rounded=0;endArrow=block;" edge="1" parent="1" source="WZqzgftzzFyOO5o-W55S-1" target="WZqzgftzzFyOO5o-W55S-3">
          <mxGeometry relative="1" as="geometry">
            <Array as="points">
              <mxPoint x="202" y="127" />
            </Array>
          </mxGeometry>
        </mxCell>
        <mxCell id="WZqzgftzzFyOO5o-W55S-10" value="计算总费用" style="curved=1;endArrow=block;rounded=0;" edge="1" parent="1" source="WZqzgftzzFyOO5o-W55S-3" target="WZqzgftzzFyOO5o-W55S-3">
          <mxGeometry relative="1" as="geometry">
            <Array as="points">
              <mxPoint x="355" y="179" />
              <mxPoint x="355" y="209" />
            </Array>
          </mxGeometry>
        </mxCell>
        <mxCell id="WZqzgftzzFyOO5o-W55S-11" value="按实际量计费" style="curved=1;endArrow=block;rounded=0;" edge="1" parent="1" source="WZqzgftzzFyOO5o-W55S-3" target="WZqzgftzzFyOO5o-W55S-3">
          <mxGeometry relative="1" as="geometry">
            <Array as="points">
              <mxPoint x="355" y="348" />
              <mxPoint x="355" y="378" />
            </Array>
          </mxGeometry>
        </mxCell>
        <mxCell id="WZqzgftzzFyOO5o-W55S-12" value="完整计费" style="curved=1;endArrow=block;rounded=0;" edge="1" parent="1" source="WZqzgftzzFyOO5o-W55S-3" target="WZqzgftzzFyOO5o-W55S-3">
          <mxGeometry relative="1" as="geometry">
            <Array as="points">
              <mxPoint x="355" y="476" />
              <mxPoint x="355" y="506" />
            </Array>
          </mxGeometry>
        </mxCell>
        <mxCell id="WZqzgftzzFyOO5o-W55S-13" value="详单数据包" style="verticalAlign=bottom;edgeStyle=elbowEdgeStyle;elbow=vertical;curved=0;rounded=0;dashed=1;dashPattern=2 3;endArrow=block;" edge="1" parent="1" source="WZqzgftzzFyOO5o-W55S-3" target="WZqzgftzzFyOO5o-W55S-1">
          <mxGeometry relative="1" as="geometry">
            <Array as="points">
              <mxPoint x="205" y="608" />
            </Array>
          </mxGeometry>
        </mxCell>
        <mxCell id="WZqzgftzzFyOO5o-W55S-14" value="数据库存储确认" style="verticalAlign=bottom;edgeStyle=elbowEdgeStyle;elbow=vertical;curved=0;rounded=0;dashed=1;dashPattern=2 3;endArrow=block;" edge="1" parent="1" source="WZqzgftzzFyOO5o-W55S-3" target="WZqzgftzzFyOO5o-W55S-1">
          <mxGeometry relative="1" as="geometry">
            <Array as="points">
              <mxPoint x="205" y="660" />
            </Array>
          </mxGeometry>
        </mxCell>
      </root>
    </mxGraphModel>
  </diagram>
</mxfile>
